<svg width="51" height="51" viewBox="0 0 51 51" fill="none" xmlns="http://www.w3.org/2000/svg">
<circle cx="25.5" cy="25.5" r="24.5" stroke="#333333" stroke-width="2"/>
<path d="M12.4245 24.626C11.7858 24.8241 11.1257 25.0589 10.6467 25.5793C9.52662 26.795 9.95797 29.1252 11.2019 30.1705C12.4459 31.2159 14.1618 31.2136 15.656 30.7623C17.018 30.3378 18.2624 29.6197 19.295 28.6624C20.9179 27.1795 22.0999 25.1372 23.7681 23.7235C25.4363 22.3097 27.9671 21.6949 29.5066 23.286L23.5321 28.6785C22.5789 29.5465 21.5113 30.4583 20.2816 30.4929C19.0162 30.5297 17.8508 29.5903 17.1359 28.4022C16.421 27.2141 16.073 25.7911 15.737 24.4004C15.2771 22.5031 14.5955 21.8676 14.3619 18.7086C14.1284 15.5495 16.6474 13.8157 19.0471 14.5203C21.4469 15.2249 22.1976 16.954 22.4454 18.6003C22.6933 20.2467 22.4097 21.9344 22.4145 23.6037C22.4145 27.518 24.1112 31.377 26.8447 33.7463C27.2403 34.0894 27.6954 34.4141 28.1887 34.3749C28.7917 34.3289 29.2492 33.7624 29.6401 33.2375L34.6994 26.4542C35.5597 25.303 36.8609 24.0251 38.05 24.7043C38.8031 25.1349 39.1058 26.2355 38.9675 27.1818C38.8293 28.1282 38.3503 28.9594 37.8785 29.7538C37.2422 30.8221 36.5725 31.9112 35.6145 32.5997C34.6565 33.2881 33.3339 33.4838 32.4188 32.724C31.0556 31.5935 31.3225 29.1666 32.078 27.4489C32.8334 25.7313 33.9606 24.0665 33.8867 22.1531C33.8429 21.3765 33.6136 20.6202 33.2167 19.9435C32.8198 19.2668 32.2661 18.6881 31.599 18.2527C30.3526 17.4468 28.8751 17.2211 27.4428 17.2649C25.1431 17.3363 22.7839 18.1191 21.1061 19.9105C19.4284 21.7018 18.5824 24.6168 19.4118 27.0598C19.9551 28.6716 21.1776 30.1866 20.8059 31.856C20.3841 33.7486 18.2035 34.3058 16.5163 33.9282C13.7829 33.3066 11.2282 30.7991 11.0542 27.6308C10.9493 25.699 11.7691 23.7327 13.1609 22.6136C14.9053 21.2068 17.236 21.1976 19.1639 20.1453C21.2229 19.0194 22.6385 16.8159 24.3758 15.1281C26.1131 13.4404 28.6654 12.2454 30.6433 13.5601C31.2646 13.9613 31.7083 14.5723 31.8873 15.2732C32.3639 17.304 30.3455 19.4177 31.0747 21.3473C31.5513 22.5837 33.9201 22.3972 34.759 21.4509C35.5978 20.5045 35.2237 18.5198 34.0845 18.1283C33.2934 17.852 32.2448 19.0493 32.1042 19.3832C30.5867 22.9711 29.7434 26.7917 29.6138 30.6656C29.5876 31.4346 29.5829 32.2359 29.2659 32.9128C29.0687 33.2936 28.8168 33.6455 28.5176 33.9582C27.3523 35.2913 26.1345 36.613 24.6212 37.3843C23.108 38.1557 21.2634 38.2892 19.8717 37.2807C18.48 36.2722 17.827 33.9374 18.7802 32.404C19.5833 31.1053 21.1228 30.7761 22.5026 30.5619C24.0993 30.3041 25.8533 30.083 27.2021 31.0869C29.9141 33.1039 30.4241 38.3836 34.7756 36.1525C37.3423 34.8331 37.9881 31.2435 36.6297 28.5864C32.8954 21.2598 18.2702 22.8071 12.4245 24.626Z" stroke="#333333" stroke-width="2" stroke-linecap="round" stroke-linejoin="round"/>
</svg>
